<svg viewBox="0 0 30 34" height="34" width="30" xmlns="http://www.w3.org/2000/svg"><g fill="none" fill-rule="evenodd"><path d="M2.73 30.52L.01.07h29.94L27.22 30.5l-12.26 3.4z" fill="#1572b6"/><path d="M14.98 31.31l9.9-2.73 2.34-26.02H14.98z" fill="#33a9dc"/><path d="M14.98 13.59h4.96l.34-3.82h-5.3V6.03h9.4l-.09 1-.92 10.3h-8.39z" fill="#fff"/><path d="M15 23.29H15l-4.18-1.12-.27-2.98H6.78l.53 5.87 7.67 2.12H15z" fill="#ebebeb"/><path d="M19.62 17.17l-.45 5-4.18 1.12v3.89l7.68-2.12.06-.64.65-7.25z" fill="#fff"/><path d="M15 6.03v3.74H5.93l-.08-.84-.17-1.9-.09-1zm-.02 7.56v3.73h-4.12l-.08-.83-.17-1.9-.09-1z" fill="#ebebeb" fill-rule="nonzero"/></g></svg>