<svg viewBox="0 0 30 34" height="34" width="30" xmlns="http://www.w3.org/2000/svg"><g fill="none" fill-rule="evenodd"><path d="M2.73 30.55L0 0h30l-2.73 30.55L14.97 34" fill="#e34f26"/><path d="M15.03 31.34l9.91-2.72 2.33-26.16H15.03" fill="#ef652a"/><g fill-rule="nonzero"><path d="M15.03 13.81h-4.99l-.33-3.85h5.32V6.24H5.6l.06 1L6.6 17.6h8.44zm0 9.76h-.06l-4.2-1.12-.26-3H6.78l.47 5.92 7.72 2.12h.06z" fill="#ebebeb"/><path d="M14.97 13.81v3.79h4.65l-.46 4.85-4.2 1.12v3.92l7.72-2.12.07-.67.86-9.9.14-.99h-1.07zm0-7.57v3.72h9.11l.07-.8.2-1.92.06-1z" fill="#fff"/></g></g></svg>