<svg viewBox="0 0 34 34" height="34" width="34" xmlns="http://www.w3.org/2000/svg"><g fill="none"><path d="M3 0h28a3 3 0 013 3v28a3 3 0 01-3 3H3a3 3 0 01-3-3V3a3 3 0 013-3z" fill="#f7df1e"/><path d="M22.84 26.56c.68 1.12 1.57 1.94 3.15 1.94 1.33 0 2.17-.66 2.17-1.57 0-1.1-.87-1.49-2.32-2.12l-.8-.35c-2.31-.98-3.84-2.2-3.84-4.81 0-2.4 1.82-4.22 4.68-4.22 2.03 0 3.49.7 4.54 2.56l-2.49 1.6c-.54-.99-1.13-1.37-2.05-1.37-.94 0-1.53.59-1.53 1.37 0 .95.6 1.34 1.96 1.94l.8.34c2.72 1.16 4.25 2.35 4.25 5.02 0 2.87-2.26 4.45-5.3 4.45-2.96 0-4.88-1.42-5.82-3.27l2.6-1.5zm-11.29.28c.5.89.96 1.64 2.06 1.64 1.05 0 1.71-.4 1.71-2V15.6h3.2v10.9c0 3.32-1.94 4.82-4.77 4.82a4.96 4.96 0 01-4.8-2.92z" fill="#000"/></g></svg>